<!-- When use in markdown (e.g. Github README) add dimensions width="390" height="89" -->
<?xml version="1.0" encoding="UTF-8" standalone="no"?>
<!DOCTYPE svg PUBLIC "-//W3C//DTD SVG 1.1//EN" "http://www.w3.org/Graphics/SVG/1.1/DTD/svg11.dtd">
<svg width="100%" height="100%" viewBox="0 0 405 93" version="1.1" xmlns="http://www.w3.org/2000/svg" xmlns:xlink="http://www.w3.org/1999/xlink" xml:space="preserve" xmlns:serif="http://www.serif.com/">
    <style>
        .logo-text {
            fill: #000;
        }
        /**
        * Change the color by configuration dark/light
        * from the local S.O (Windows, Linux...)
        */
        @media (prefers-color-scheme: dark) {
            .logo-text {
                fill: #fff;
            }
        }
    </style>
    <g>
        <rect x="0" y="52.17" width="8.663" height="8.815" style="fill:#ed3237;" />
        <rect x="26.285" y="26.565" width="8.663" height="8.815" style="fill:#ed3237;" />
        <rect x="0.078" y="25.605" width="8.663" height="8.815" style="fill:#ed3237;" />
        <rect x="26.364" y="0" width="8.663" height="8.815" style="fill:#ed3237;" />
        <path
            d="M61.437,15.736c2.699,0.087 4.111,1.468 4.236,4.142l0,17.516c0,0 -3.8,3.761 -11.4,11.283c-8.126,-8.311 -12.19,-12.467 -12.19,-12.467l0,-16.608c-0.085,-2.585 1.141,-3.873 3.68,-3.866l15.674,-0Z"
            style="fill:#ed3237;stroke:#ed3237;stroke-width:0.36px;" />
        <path
            d="M46.313,88.325c-2.699,-0.081 -4.111,-1.361 -4.236,-3.84l0,-15.132l12.191,-12.155l11.399,11.437l0,16.106c0.085,2.396 -1.141,3.591 -3.68,3.584l-15.674,-0Z"
            style="fill:#ed3237;stroke:#ed3237;stroke-width:0.36px;" />
        <path
            d="M17.525,44.445c0.083,-2.69 1.415,-4.098 3.993,-4.222l15.739,0l12.644,12.151l-11.284,11.363l-17.365,-0c-2.492,0.084 -3.734,-1.138 -3.727,-3.669l-0,-15.623Z"
            style="fill:#ed3237;stroke:#ed3237;stroke-width:0.36px;" />
        <path
            d="M90.865,44.445c-0.083,-2.69 -1.415,-4.098 -3.993,-4.222l-15.739,0l-12.644,12.151l11.284,11.363l17.365,-0c2.493,0.084 3.735,-1.138 3.727,-3.669l0,-15.623Z"
            style="fill:#ed3237;stroke:#ed3237;stroke-width:0.36px;" />
        <g>
            <path
                d="M105.529,34.408l-0,33.693l-9.816,-0l-0,-33.693c-0,-12.479 5.453,-18.718 16.36,-18.718c4.93,-0 8.747,1.272 11.452,3.818c2.704,-2.546 6.522,-3.818 11.451,-3.818c10.907,-0 16.36,6.239 16.36,18.718l0,33.693l-9.816,-0l0,-33.693c0,-4.992 -2.181,-7.487 -6.544,-7.487c-4.362,-0 -6.543,2.495 -6.543,7.487l-0,33.693l-9.816,-0l-0,-33.693c-0,-4.992 -2.182,-7.487 -6.544,-7.487c-4.363,-0 -6.544,2.495 -6.544,7.487Z"
                class="logo-text" style="fill-rule:nonzero;" />
            <rect x="156.244" y="56.87" width="9.816" height="11.231" class="logo-text" style="fill-rule:nonzero;" />
            <path
                d="M190.6,15.69l19.632,-0l-0,11.231l-19.632,-0c-5.977,-0 -9.227,3.119 -9.751,9.359l26.111,-0l-0,11.231l-26.176,-0l-0,20.59l-9.816,-0l0,-29.949c0,-14.975 6.544,-22.462 19.632,-22.462Z"
                class="logo-text" style="fill-rule:nonzero;" />
            <path
                d="M234.771,15.69l19.632,-0l0,11.231l-19.632,-0c-6.544,-0 -9.815,3.743 -9.815,11.231l-0,7.487c-0,7.487 3.271,11.231 9.815,11.231l19.632,-0l0,11.231l-19.632,-0c-13.087,-0 -19.631,-7.487 -19.631,-22.462l-0,-7.487c-0,-14.975 6.544,-22.462 19.631,-22.462Zm16.36,31.821l-22.904,-0l0,-11.231l22.904,-0l0,11.231Z"
                class="logo-text" style="fill-rule:nonzero;" />
            <path
                d="M278.943,56.87l19.632,-0l-0,11.231l-19.632,-0c-13.088,-0 -19.632,-7.487 -19.632,-22.462l0,-29.949l9.816,-0l0,29.949c0,7.487 3.272,11.231 9.816,11.231Z"
                class="logo-text" style="fill-rule:nonzero;" />
            <rect x="305.119" y="15.69" width="9.816" height="52.411" class="logo-text" style="fill-rule:nonzero;" />
            <path
                d="M344.382,53.126l-9.816,0l0,-11.231l9.816,0c4.363,0 6.544,-2.496 6.544,-7.487c0,-4.992 -2.181,-7.487 -6.544,-7.487l-13.088,-0l0,41.18l-9.816,-0l0,-52.411l22.904,-0c10.907,-0 16.36,6.239 16.36,18.718c0,12.479 -5.453,18.718 -16.36,18.718Z"
                class="logo-text" style="fill-rule:nonzero;" />
            <path
                d="M385.282,15.69l19.632,-0l-0,11.231l-19.632,-0c-6.544,-0 -9.816,3.743 -9.816,11.231l-0,7.487c-0,7.487 3.272,11.231 9.816,11.231l19.632,-0l-0,11.231l-19.632,-0c-13.088,-0 -19.632,-7.487 -19.632,-22.462l-0,-7.487c-0,-14.975 6.544,-22.462 19.632,-22.462Zm16.36,31.821l-22.904,-0l-0,-11.231l22.904,-0l-0,11.231Z"
                class="logo-text" style="fill-rule:nonzero;" />
        </g>
        <g>
            <path
                d="M98.596,80.266l0,8.195l-2.704,-0l-0,-8.195c-0,-3.035 1.502,-4.552 4.507,-4.552c1.359,-0 2.411,0.309 3.156,0.929c0.745,-0.62 1.797,-0.929 3.155,-0.929c3.006,-0 4.508,1.517 4.508,4.552l0,8.195l-2.705,-0l0,-8.195c0,-1.214 -0.601,-1.821 -1.803,-1.821c-1.202,0 -1.803,0.607 -1.803,1.821l0,8.195l-2.704,-0l-0,-8.195c-0,-1.214 -0.601,-1.821 -1.804,-1.821c-1.202,0 -1.803,0.607 -1.803,1.821Z"
                class="logo-text" style="fill-rule:nonzero;" />
            <path
                d="M112.57,81.177c0,-3.642 1.804,-5.463 5.41,-5.463c3.606,-0 5.409,1.821 5.409,5.463l0,1.821c0,3.642 -1.803,5.463 -5.409,5.463c-3.606,-0 -5.41,-1.821 -5.41,-5.463l0,-1.821Zm5.41,-2.732c-1.803,0 -2.705,0.911 -2.705,2.732l0,1.821c0,1.821 0.902,2.731 2.705,2.731c1.803,0 2.704,-0.91 2.704,-2.731l0,-1.821c0,-1.821 -0.901,-2.732 -2.704,-2.732Z"
                class="logo-text" style="fill-rule:nonzero;" />
            <path
                d="M124.741,88.461l0,-12.747l7.889,-0c2.554,-0 3.832,1.29 3.832,3.869c-0,1.05 -0.211,1.885 -0.631,2.504c0.42,0.619 0.631,1.454 0.631,2.504c-0,2.58 -1.278,3.87 -3.832,3.87l-7.889,-0Zm2.705,-10.016l0,2.276l5.184,0c0.751,0 1.127,-0.379 1.127,-1.138c-0,-0.758 -0.376,-1.138 -1.127,-1.138l-5.184,0Zm0,5.008l0,2.276l5.184,0c0.751,0 1.127,-0.379 1.127,-1.138c-0,-0.759 -0.376,-1.138 -1.127,-1.138l-5.184,-0Z"
                class="logo-text" style="fill-rule:nonzero;" />
            <rect x="138.265" y="75.714" width="2.705" height="12.747" class="logo-text" style="fill-rule:nonzero;" />
            <path
                d="M148.182,85.729l5.409,0l0,2.732l-5.409,-0c-3.606,-0 -5.409,-1.821 -5.409,-5.463l-0,-7.284l2.704,-0l0,7.284c0,1.821 0.902,2.731 2.705,2.731Z"
                class="logo-text" style="fill-rule:nonzero;" />
            <path
                d="M160.353,75.714l5.409,-0l0,2.731l-5.409,0c-1.647,0 -2.543,0.759 -2.687,2.276l7.195,0l-0,2.732l-7.195,-0c0.144,1.517 1.04,2.276 2.687,2.276l5.409,0l0,2.732l-5.409,-0c-3.606,-0 -5.41,-1.821 -5.41,-5.463l0,-1.821c0,-3.642 1.804,-5.463 5.41,-5.463Z"
                class="logo-text" style="fill-rule:nonzero;" />
            <path
                d="M177.104,78.445c-1.803,0 -2.705,0.911 -2.705,2.732l0,1.821l5.409,-0l0,-1.821c0,-1.821 -0.901,-2.732 -2.704,-2.732Zm-5.41,2.732c0,-3.642 1.803,-5.463 5.41,-5.463c3.606,-0 5.409,1.821 5.409,5.463l0,7.284l-2.705,-0l0,-2.732l-5.409,0l0,2.732l-2.705,-0l0,-7.284Z"
                class="logo-text" style="fill-rule:nonzero;" />
            <path
                d="M194.684,81.177l-0,7.284l-2.705,-0l0,-7.284c0,-1.821 -0.901,-2.732 -2.704,-2.732c-1.803,0 -2.705,0.911 -2.705,2.732l0,7.284l-2.705,-0l0,-7.284c0,-3.642 1.803,-5.463 5.41,-5.463c3.606,-0 5.409,1.821 5.409,5.463Z"
                class="logo-text" style="fill-rule:nonzero;" />
            <path
                d="M205.052,81.177c-0,-1.821 -0.902,-2.732 -2.705,-2.732l-3.606,0l-0,7.284l3.606,0c1.803,0 2.705,-0.91 2.705,-2.731l-0,-1.821Zm-2.705,-5.463c3.606,-0 5.41,1.821 5.41,5.463l-0,1.821c-0,3.642 -1.804,5.463 -5.41,5.463l-6.311,-0l0,-12.747l6.311,-0Z"
                class="logo-text" style="fill-rule:nonzero;" />
            <path
                d="M219.098,75.714l5.409,-0l0,2.731l-5.409,0c-1.803,0 -2.705,0.911 -2.705,2.732l0,1.821c0,1.821 0.902,2.731 2.705,2.731l2.705,0l-0,-2.276l-3.606,-0l-0,-2.732l6.31,0l0,7.74l-5.409,-0c-3.606,-0 -5.409,-1.821 -5.409,-5.463l-0,-1.821c-0,-3.642 1.803,-5.463 5.409,-5.463Z"
                class="logo-text" style="fill-rule:nonzero;" />
            <path
                d="M231.269,78.445c-1.803,0 -2.705,0.911 -2.705,2.732l0,1.821l5.41,-0l-0,-1.821c-0,-1.821 -0.902,-2.732 -2.705,-2.732Zm-5.409,2.732c-0,-3.642 1.803,-5.463 5.409,-5.463c3.606,-0 5.409,1.821 5.409,5.463l0,7.284l-2.704,-0l-0,-2.732l-5.41,0l0,2.732l-2.704,-0l-0,-7.284Z"
                class="logo-text" style="fill-rule:nonzero;" />
            <path
                d="M240.735,80.266l0,8.195l-2.704,-0l-0,-8.195c-0,-3.035 1.502,-4.552 4.507,-4.552c1.359,-0 2.411,0.309 3.156,0.929c0.745,-0.62 1.797,-0.929 3.155,-0.929c3.006,-0 4.508,1.517 4.508,4.552l0,8.195l-2.705,-0l0,-8.195c0,-1.214 -0.601,-1.821 -1.803,-1.821c-1.202,0 -1.803,0.607 -1.803,1.821l0,8.195l-2.704,-0l-0,-8.195c-0,-1.214 -0.601,-1.821 -1.804,-1.821c-1.202,0 -1.803,0.607 -1.803,1.821Z"
                class="logo-text" style="fill-rule:nonzero;" />
            <path
                d="M260.119,75.714l5.409,-0l0,2.731l-5.409,0c-1.647,0 -2.543,0.759 -2.687,2.276l7.195,0l-0,2.732l-7.195,-0c0.144,1.517 1.04,2.276 2.687,2.276l5.409,0l0,2.732l-5.409,-0c-3.606,-0 -5.41,-1.821 -5.41,-5.463l0,-1.821c0,-3.642 1.804,-5.463 5.41,-5.463Z"
                class="logo-text" style="fill-rule:nonzero;" />
            <path
                d="M280.476,81.177c-0,-1.821 -0.902,-2.732 -2.705,-2.732l-3.606,0l-0,7.284l3.606,0c1.803,0 2.705,-0.91 2.705,-2.731l-0,-1.821Zm-2.705,-5.463c3.606,-0 5.41,1.821 5.41,5.463l-0,1.821c-0,3.642 -1.804,5.463 -5.41,5.463l-6.311,-0l0,-12.747l6.311,-0Z"
                class="logo-text" style="fill-rule:nonzero;" />
            <path
                d="M289.942,75.714l5.41,-0l-0,2.731l-5.41,0c-1.647,0 -2.542,0.759 -2.686,2.276l7.194,0l-0,2.732l-7.194,-0c0.144,1.517 1.039,2.276 2.686,2.276l5.41,0l-0,2.732l-5.41,-0c-3.606,-0 -5.409,-1.821 -5.409,-5.463l-0,-1.821c-0,-3.642 1.803,-5.463 5.409,-5.463Z"
                class="logo-text" style="fill-rule:nonzero;" />
            <path
                d="M296.704,81.177l-0,-5.463l2.705,-0l-0,5.463c-0,1.821 0.901,3.277 2.704,4.37c1.803,-1.093 2.705,-2.549 2.705,-4.37l-0,-5.463l2.704,-0l0,5.463c0,3.642 -1.803,6.07 -5.409,7.284c-3.606,-1.214 -5.409,-3.642 -5.409,-7.284Z"
                class="logo-text" style="fill-rule:nonzero;" />
            <path
                d="M314.284,75.714l5.409,-0l0,2.731l-5.409,0c-1.647,0 -2.542,0.759 -2.686,2.276l7.194,0l-0,2.732l-7.194,-0c0.144,1.517 1.039,2.276 2.686,2.276l5.409,0l0,2.732l-5.409,-0c-3.606,-0 -5.409,-1.821 -5.409,-5.463l-0,-1.821c-0,-3.642 1.803,-5.463 5.409,-5.463Z"
                class="logo-text" style="fill-rule:nonzero;" />
            <path
                d="M326.455,85.729l5.409,0l0,2.732l-5.409,-0c-3.606,-0 -5.409,-1.821 -5.409,-5.463l-0,-7.284l2.704,-0l0,7.284c0,1.821 0.902,2.731 2.705,2.731Z"
                class="logo-text" style="fill-rule:nonzero;" />
            <path
                d="M333.217,81.177c-0,-3.642 1.803,-5.463 5.409,-5.463c3.606,-0 5.409,1.821 5.409,5.463l0,1.821c0,3.642 -1.803,5.463 -5.409,5.463c-3.606,-0 -5.409,-1.821 -5.409,-5.463l-0,-1.821Zm5.409,-2.732c-1.803,0 -2.705,0.911 -2.705,2.732l0,1.821c0,1.821 0.902,2.731 2.705,2.731c1.803,0 2.705,-0.91 2.705,-2.731l-0,-1.821c-0,-1.821 -0.902,-2.732 -2.705,-2.732Z"
                class="logo-text" style="fill-rule:nonzero;" />
            <path
                d="M353.502,80.266c-0,-1.214 -0.601,-1.821 -1.803,-1.821l-3.607,0l0,3.642l3.607,0c1.202,0 1.803,-0.607 1.803,-1.821Zm-1.803,-4.552c3.005,-0 4.507,1.517 4.507,4.552c0,3.035 -1.502,4.553 -4.507,4.553l-3.607,-0l0,3.642l-2.704,-0l-0,-12.747l6.311,-0Z"
                class="logo-text" style="fill-rule:nonzero;" />
            <path
                d="M362.968,75.714l5.409,-0l0,2.731l-5.409,0c-1.647,0 -2.542,0.759 -2.687,2.276l7.195,0l-0,2.732l-7.195,-0c0.145,1.517 1.04,2.276 2.687,2.276l5.409,0l0,2.732l-5.409,-0c-3.606,-0 -5.409,-1.821 -5.409,-5.463l-0,-1.821c-0,-3.642 1.803,-5.463 5.409,-5.463Z"
                class="logo-text" style="fill-rule:nonzero;" />
            <path
                d="M377.844,80.266c-0,-1.214 -0.601,-1.821 -1.803,-1.821l-3.607,0l0,3.642l3.607,0c1.202,0 1.803,-0.607 1.803,-1.821Zm-1.803,-4.552c3.005,-0 4.507,1.517 4.507,4.552c0,1.372 -0.306,2.434 -0.919,3.187c0.613,0.753 0.919,1.815 0.919,3.187l0,1.821l-2.704,-0l-0,-1.821c-0,-1.214 -0.601,-1.821 -1.803,-1.821l-3.607,-0l0,3.642l-2.704,-0l-0,-12.747l6.311,-0Z"
                class="logo-text" style="fill-rule:nonzero;" />
        </g>
    </g>
</svg>